<svg width="24" height="35" viewBox="0 0 24 35" fill="none" xmlns="http://www.w3.org/2000/svg">
<path fill-rule="evenodd" clip-rule="evenodd" d="M17.4441 22.0452V13.5297C18.5955 14.0743 18.8861 16.0728 17.9841 17.0356C17.9841 17.0356 20.2433 16.7655 20.2433 14.0633C20.2433 11.9329 18.7479 10.7012 17.4441 10.4098V4.43906C17.4536 3.75331 18.9754 2.91088 19.628 4.31502C20.7429 2.63297 19.1379 -0.691462 16.1153 1.47382C13.0933 -0.691462 11.4888 2.63297 12.6027 4.31502C13.257 2.91088 14.7771 3.75331 14.7875 4.43906V11.1394C13.9928 11.619 12.9996 12.4066 12.0557 13.7173L5.37527 4.35412C5.50179 3.68693 6.92451 2.96798 7.5501 4.31502C8.665 2.63297 7.06077 -0.691462 4.03772 1.47382C1.01466 -0.691462 -0.588843 2.63297 0.526067 4.31502C1.17866 2.91088 2.69919 3.75331 2.7099 4.43906V10.4303C1.42807 10.7572 0 11.9821 0 14.0636C0 16.7655 2.25902 17.0359 2.25902 17.0359C1.38062 16.0984 1.63368 14.1798 2.7099 13.5764V22.0452C2.69943 22.7318 1.17866 23.5747 0.526067 22.1703C-0.589086 23.8521 1.01442 27.1768 4.03772 25.0107C7.06077 27.1768 8.665 23.8521 7.5501 22.1703C6.89677 23.5745 5.37673 22.7318 5.36578 22.0452V14.2374C7.28414 15.7476 8.62729 18.7477 8.7874 20.4888V30.3584C8.7874 31.9577 7.2564 33.1078 6.6043 31.7037C5.4889 33.3863 7.09362 36.387 10.1167 34.2231C13.138 36.387 14.7435 33.3863 13.6286 31.7037C12.975 33.1078 11.4447 31.8241 11.4447 30.3584V20.6295C11.4807 19.9769 11.7019 19.121 12.0691 18.2237L14.7846 22.0803C14.7262 22.7593 13.2458 23.552 12.6027 22.1703C11.4888 23.8521 13.0933 27.1768 16.1153 25.0107C19.1379 27.1768 20.7429 23.8521 19.628 22.1703C18.9751 23.5745 17.4536 22.7318 17.4441 22.0452ZM10.1215 17.6462C8.81781 13.6743 6.75929 11.9034 5.36553 11.0865V8.70325L10.659 16.2199C10.459 16.6845 10.2796 17.1605 10.1215 17.6462ZM14.7875 14.3105V17.5472L13.4777 15.7108C13.8712 15.1811 14.3113 14.7012 14.7875 14.3105ZM22.398 21.6199H22.0449V22.7318H21.8055V21.6199H21.4539V21.3782H22.3982V21.6199H22.398ZM24 22.7318H23.7606V21.6545H23.7557L23.4172 22.7318H23.1854L22.8578 21.6545H22.8518V22.7318H22.6128V21.3782H23.0272L23.2985 22.2631H23.306L23.5883 21.3782H23.9998L24 22.7318Z" fill="#0E0D0D"/>
</svg>
